HIERARCHY
ROOT Hips
{
	OFFSET -0.312017 91.242800 1.250620
	CHANNELS 6 Xposition Yposition Zposition Zrotation Yrotation Xrotation 
	JOINT Spine
	{
		OFFSET 0.000000 9.923500 -1.227300
		CHANNELS 3 Zrotation Yrotation Xrotation
		JOINT Spine1
		{
			OFFSET -0.000100 11.645400 -1.422300
			CHANNELS 3 Zrotation Yrotation Xrotation
			JOINT Spine2
			{
				OFFSET 0.000100 13.360200 -1.626500
				CHANNELS 3 Zrotation Yrotation Xrotation
				JOINT Neck
				{
					OFFSET 0.000000 15.032500 0.792900
					CHANNELS 3 Zrotation Yrotation Xrotation
					JOINT Head
					{
						OFFSET 0.000000 10.321800 3.142400
						CHANNELS 3 Zrotation Yrotation Xrotation
						JOINT HeadTop_End
						{
							OFFSET 0.000200 18.474700 6.636400
							CHANNELS 3 Zrotation Yrotation Xrotation
							End Site
							{
								OFFSET 0.000000 0.000000 0.000000
							}
						}
						JOINT LeftEye
						{
							OFFSET 2.947900 7.681700 9.120700
							CHANNELS 3 Zrotation Yrotation Xrotation
							End Site
							{
								OFFSET 0.000000 0.000000 0.000000
							}
						}
						JOINT RightEye
						{
							OFFSET -2.944500 7.681700 9.120500
							CHANNELS 3 Zrotation Yrotation Xrotation
							End Site
							{
								OFFSET 0.000000 0.000000 0.000000
							}
						}
					}
				}
				JOINT LeftShoulder
				{
					OFFSET 6.105800 9.110400 0.705600
					CHANNELS 3 Zrotation Yrotation Xrotation
					JOINT LeftArm
					{
						OFFSET 12.655000 -0.265900 -2.600900
						CHANNELS 3 Zrotation Yrotation Xrotation
						JOINT LeftForeArm
						{
							OFFSET 27.404700 0.000000 0.000000
							CHANNELS 3 Zrotation Yrotation Xrotation
							JOINT LeftHand
							{
								OFFSET 27.614500 0.000000 0.000000
								CHANNELS 3 Zrotation Yrotation Xrotation
								JOINT LeftHandMiddle1
								{
									OFFSET 12.775500 0.000000 0.000000
									CHANNELS 3 Zrotation Yrotation Xrotation
									JOINT LeftHandMiddle2
									{
										OFFSET 3.614000 0.000000 0.000000
										CHANNELS 3 Zrotation Yrotation Xrotation
										JOINT LeftHandMiddle3
										{
											OFFSET 3.459800 0.000000 0.000000
											CHANNELS 3 Zrotation Yrotation Xrotation
											End Site
											{
												OFFSET 0.000000 0.000000 0.000000
											}
										}
									}
								}
								JOINT LeftHandThumb1
								{
									OFFSET 3.788800 -2.167000 3.003100
									CHANNELS 3 Zrotation Yrotation Xrotation
									JOINT LeftHandThumb2
									{
										OFFSET 3.675400 -2.122000 2.122000
										CHANNELS 3 Zrotation Yrotation Xrotation
										JOINT LeftHandThumb3
										{
											OFFSET 3.394400 -1.959700 1.959800
											CHANNELS 3 Zrotation Yrotation Xrotation
											End Site
											{
												OFFSET 0.000000 0.000000 0.000000
											}
										}
									}
								}
								JOINT LeftHandIndex1
								{
									OFFSET 12.266600 -0.231700 2.822100
									CHANNELS 3 Zrotation Yrotation Xrotation
									JOINT LeftHandIndex2
									{
										OFFSET 3.892000 0.000000 0.000000
										CHANNELS 3 Zrotation Yrotation Xrotation
										JOINT LeftHandIndex3
										{
											OFFSET 3.415200 0.000000 0.000000
											CHANNELS 3 Zrotation Yrotation Xrotation
											End Site
											{
												OFFSET 0.000000 0.000000 0.000000
											}
										}
									}
								}
								JOINT LeftHandRing1
								{
									OFFSET 12.147000 0.009900 -2.216600
									CHANNELS 3 Zrotation Yrotation Xrotation
									JOINT LeftHandRing2
									{
										OFFSET 3.601200 0.000000 0.000000
										CHANNELS 3 Zrotation Yrotation Xrotation
										JOINT LeftHandRing3
										{
											OFFSET 3.307300 0.000000 0.000000
											CHANNELS 3 Zrotation Yrotation Xrotation
											End Site
											{
												OFFSET 0.000000 0.000000 0.000000
											}
										}
									}
								}
								JOINT LeftHandPinky1
								{
									OFFSET 10.908200 -0.226400 -4.725800
									CHANNELS 3 Zrotation Yrotation Xrotation
									JOINT LeftHandPinky2
									{
										OFFSET 4.136700 0.000000 0.000000
										CHANNELS 3 Zrotation Yrotation Xrotation
										JOINT LeftHandPinky3
										{
											OFFSET 2.594800 0.000000 0.000000
											CHANNELS 3 Zrotation Yrotation Xrotation
											End Site
											{
												OFFSET 0.000000 0.000000 0.000000
											}
										}
									}
								}
							}
						}
					}
				}
				JOINT RightShoulder
				{
					OFFSET -6.105700 9.110500 0.705600
					CHANNELS 3 Zrotation Yrotation Xrotation
					JOINT RightArm
					{
						OFFSET -12.655000 -0.266000 -2.600900
						CHANNELS 3 Zrotation Yrotation Xrotation
						JOINT RightForeArm
						{
							OFFSET -27.404700 0.000000 0.000000
							CHANNELS 3 Zrotation Yrotation Xrotation
							JOINT RightHand
							{
								OFFSET -27.614500 0.000000 0.000000
								CHANNELS 3 Zrotation Yrotation Xrotation
								JOINT RightHandMiddle1
								{
									OFFSET -12.775500 0.000000 0.000000
									CHANNELS 3 Zrotation Yrotation Xrotation
									JOINT RightHandMiddle2
									{
										OFFSET -3.614000 0.000000 0.000000
										CHANNELS 3 Zrotation Yrotation Xrotation
										JOINT RightHandMiddle3
										{
											OFFSET -3.459800 0.000000 0.000000
											CHANNELS 3 Zrotation Yrotation Xrotation
											End Site
											{
												OFFSET 0.000000 0.000000 0.000000
											}
										}
									}
								}
								JOINT RightHandThumb1
								{
									OFFSET -3.788800 -2.167000 3.003100
									CHANNELS 3 Zrotation Yrotation Xrotation
									JOINT RightHandThumb2
									{
										OFFSET -3.675400 -2.122000 2.122000
										CHANNELS 3 Zrotation Yrotation Xrotation
										JOINT RightHandThumb3
										{
											OFFSET -3.394400 -1.959700 1.959800
											CHANNELS 3 Zrotation Yrotation Xrotation
											End Site
											{
												OFFSET 0.000000 0.000000 0.000000
											}
										}
									}
								}
								JOINT RightHandIndex1
								{
									OFFSET -12.266600 -0.231700 2.822100
									CHANNELS 3 Zrotation Yrotation Xrotation
									JOINT RightHandIndex2
									{
										OFFSET -3.892000 0.000000 0.000000
										CHANNELS 3 Zrotation Yrotation Xrotation
										JOINT RightHandIndex3
										{
											OFFSET -3.415200 0.000000 0.000000
											CHANNELS 3 Zrotation Yrotation Xrotation
											End Site
											{
												OFFSET 0.000000 0.000000 0.000000
											}
										}
									}
								}
								JOINT RightHandRing1
								{
									OFFSET -12.147000 0.009900 -2.216600
									CHANNELS 3 Zrotation Yrotation Xrotation
									JOINT RightHandRing2
									{
										OFFSET -3.601200 0.000000 0.000000
										CHANNELS 3 Zrotation Yrotation Xrotation
										JOINT RightHandRing3
										{
											OFFSET -3.307300 0.000000 0.000000
											CHANNELS 3 Zrotation Yrotation Xrotation
											End Site
											{
												OFFSET 0.000000 0.000000 0.000000
											}
										}
									}
								}
								JOINT RightHandPinky1
								{
									OFFSET -10.908200 -0.226400 -4.725800
									CHANNELS 3 Zrotation Yrotation Xrotation
									JOINT RightHandPinky2
									{
										OFFSET -4.136700 0.000000 0.000000
										CHANNELS 3 Zrotation Yrotation Xrotation
										JOINT RightHandPinky3
										{
											OFFSET -2.594800 0.000000 0.000000
											CHANNELS 3 Zrotation Yrotation Xrotation
											End Site
											{
												OFFSET 0.000000 0.000000 0.000000
											}
										}
									}
								}
							}
						}
					}
				}
			}
		}
	}
	JOINT RightUpLeg
	{
		OFFSET -9.124500 -6.656400 -0.055400
		CHANNELS 3 Zrotation Yrotation Xrotation
		JOINT RightLeg
		{
			OFFSET -0.244700 -40.595400 -0.514500
			CHANNELS 3 Zrotation Yrotation Xrotation
			JOINT RightFoot
			{
				OFFSET 0.244700 -42.047900 -2.060200
				CHANNELS 3 Zrotation Yrotation Xrotation
				JOINT RightToeBase
				{
					OFFSET -0.373400 -10.492200 12.640700
					CHANNELS 3 Zrotation Yrotation Xrotation
					End Site
					{
						OFFSET 0.000000 0.000000 0.000000
					}
				}
			}
		}
	}
	JOINT LeftUpLeg
	{
		OFFSET 9.124500 -6.656400 -0.055400
		CHANNELS 3 Zrotation Yrotation Xrotation
		JOINT LeftLeg
		{
			OFFSET 0.244700 -40.595400 -0.517000
			CHANNELS 3 Zrotation Yrotation Xrotation
			JOINT LeftFoot
			{
				OFFSET -0.244700 -42.048000 -2.057600
				CHANNELS 3 Zrotation Yrotation Xrotation
				JOINT LeftToeBase
				{
					OFFSET 0.373400 -10.492200 12.640700
					CHANNELS 3 Zrotation Yrotation Xrotation
					End Site
					{
						OFFSET 0.000000 0.000000 0.000000
					}
				}
			}
		}
	}
}
MOTION
Frames: 5
Frame Time: 0.016667
-0.312017 91.242800 1.250620 0.365416 -5.123646 18.755721 -7.775378 -0.911960 14.101223 -3.835493 -0.093856 10.363114 -3.840221 -0.011823 10.359000 0.729973 0.166692 -9.683121 6.548914 2.427304 -28.204767 -0.000000 -0.000000 0.000000 -0.000000 -0.000000 0.000000 -0.000000 -0.000000 0.000000 -4.093802 -14.448107 2.165507 -17.608977 -21.431170 -7.955579 -0.000002 -65.299800 -0.000013 1.665783 -16.778538 4.036009 -23.692252 4.539423 -1.382658 -83.861696 5.814786 -5.223813 -64.624932 5.287235 -3.345500 0.982301 -8.504419 0.294546 7.548625 28.328670 10.768015 32.310505 45.235384 21.127961 -0.752795 -0.040830 7.856742 -83.861699 5.814785 -5.223843 -22.105208 2.207258 -0.431208 -44.595046 3.260498 -3.290342 -88.724507 5.846656 -5.718134 -88.414074 5.845862 -5.686499 -45.734256 5.788556 -17.053398 -88.433988 5.845901 -5.688540 -88.433987 5.845901 -5.688530 5.476160 4.882473 1.113100 64.514869 -11.954433 7.687895 0.000039 63.544800 -0.000043 5.565323 3.539769 -14.165288 22.486358 -3.907641 -1.181938 39.295976 -2.951511 -1.053978 23.643874 -1.870026 -0.391449 -3.640417 15.991109 -10.188180 -9.133392 -31.147252 11.943046 -26.427670 -39.045237 15.211170 24.522634 17.152937 6.332364 48.670086 -3.498279 -1.582500 48.670086 -3.498279 -1.582500 44.112291 -4.910407 -2.864412 63.345887 -4.161451 -2.568145 65.349975 -4.231683 -2.714817 61.149978 -13.303069 -17.315808 80.900399 -4.595875 -3.918910 80.900400 -4.595875 -3.918930 -5.116482 -17.653709 -55.067483 -7.101917 -7.169094 57.345017 1.918431 -22.642225 -9.096118 0.000004 0.000004 -2.913920 -8.456022 9.051062 -50.172646 2.199948 -3.553108 48.467390 -1.508540 7.547784 -18.311108 0.000004 -0.000007 -5.768390 
-0.568613 92.049100 3.522110 0.202272 -6.033042 17.774098 -7.475124 -1.445418 13.213681 -3.660568 -0.347397 9.841963 -3.670071 -0.266752 9.838488 0.721003 0.410451 -9.414084 4.700082 3.038274 -25.701657 0.000000 -0.000000 0.000000 0.000000 -0.000000 0.000000 0.000000 -0.000000 0.000000 -3.286042 -13.842752 1.967073 -18.141916 -18.280954 -4.396370 0.000036 -65.757900 0.000002 3.705695 -17.630087 4.499467 -28.656046 4.908191 -1.791692 -86.053686 5.834326 -5.446307 -64.624932 5.287245 -3.345500 -0.083287 -8.075480 0.648315 7.548625 28.328670 10.768015 32.310505 45.235384 21.127961 -7.471368 0.697910 7.479268 -88.018815 5.844604 -5.646286 -22.445967 2.239513 -0.444413 -48.054175 3.665622 -3.646921 -88.724509 5.846656 -5.718154 -88.414076 5.845861 -5.686519 -47.737072 6.353503 -16.885994 -88.433991 5.845921 -5.688551 -88.433988 5.845911 -5.688531 4.511074 4.907404 0.946236 61.622406 -14.728590 12.621426 0.000003 65.117700 -0.000020 6.808226 4.065067 -14.361103 23.025634 -3.769159 -1.218827 40.111130 -3.002441 -1.096315 23.643874 -1.870016 -0.391448 -3.640407 15.991109 -10.188180 -9.133392 -31.147252 11.943046 -26.427670 -39.045237 15.211170 25.374610 16.580233 6.020442 49.171010 -3.524976 -1.613183 48.670087 -3.498289 -1.582500 44.112191 -4.910407 -2.864412 63.607092 -4.170880 -2.587116 65.349975 -4.231693 -2.714817 61.149978 -13.303069 -17.315808 80.669105 -4.592883 -3.900394 80.900401 -4.595885 -3.918930 -4.540489 -18.414074 -53.743183 -6.082310 -7.436218 52.462254 3.094559 -20.291901 -6.840401 0.000005 0.000011 -2.945330 -8.264146 10.089439 -46.256959 2.637360 -3.195542 46.428265 -1.827318 7.212166 -19.309760 -0.000001 0.000002 -5.952150 
-0.878102 92.924800 6.004860 -0.012751 -7.040410 16.539449 -7.140859 -1.831226 12.391129 -3.402952 -0.574725 9.247449 -3.412552 -0.510507 9.245820 0.685722 0.735162 -8.681180 2.552866 3.804524 -22.917171 0.000000 -0.000000 0.000000 0.000000 -0.000000 0.000000 0.000000 -0.000000 0.000000 -2.383099 -13.129687 1.779113 -18.522349 -15.609196 -0.867919 0.000004 -66.227600 -0.000031 6.277299 -18.144105 5.097329 -34.202385 5.276437 -2.284385 -88.476446 5.846036 -5.692865 -64.624928 5.287226 -3.345470 -1.258341 -7.580924 1.032294 7.548625 28.328670 10.768015 32.310505 45.235384 21.127961 -15.055209 1.504120 6.828414 -92.658948 5.841811 -6.118888 -22.822732 2.275067 -0.459267 -51.881006 4.098981 -4.050448 -88.724504 5.846636 -5.718123 -88.414076 5.845861 -5.686519 -49.945053 6.967596 -16.689722 -88.433991 5.845910 -5.688561 -88.433992 5.845920 -5.688561 2.637611 4.938904 0.899539 58.148806 -17.346745 17.635460 0.000044 67.446400 0.000048 8.635023 4.284967 -13.777869 24.488619 -3.391521 -1.320273 42.365379 -3.140043 -1.217108 23.643874 -1.870026 -0.391448 -3.640400 15.991109 -10.188190 -9.133392 -31.147252 11.943046 -26.427670 -39.045237 15.211170 27.596220 15.053422 5.182846 50.530709 -3.596065 -1.697624 48.670086 -3.498279 -1.582500 44.112190 -4.910397 -2.864412 64.338376 -4.196875 -2.640476 65.349975 -4.231693 -2.714817 61.149978 -13.303069 -17.315808 80.015404 -4.584016 -3.848098 80.900399 -4.595875 -3.918920 -3.837226 -19.181081 -51.322471 -5.218332 -7.795115 47.230922 5.254984 -18.815829 -4.145480 0.000000 0.000038 -2.056870 -7.707603 11.275132 -41.633731 2.811950 -3.044743 43.852955 -2.351535 7.148821 -20.159534 -0.000001 -0.000007 -6.204390 
-1.201420 93.844300 8.843000 -0.262789 -8.203125 15.135708 -6.787887 -2.129120 11.343535 -3.069381 -0.858395 8.473128 -3.078077 -0.814860 8.473153 0.640130 1.171057 -7.595516 0.563197 4.570385 -20.071154 -0.000000 -0.000000 0.000000 -0.000000 -0.000000 0.000000 -0.000000 -0.000000 0.000000 -1.724415 -12.479223 1.593630 -18.885556 -12.252387 2.888344 -0.000013 -67.236900 0.000002 8.837946 -17.772205 5.574323 -40.140259 5.615648 -2.848422 -91.067114 5.847069 -5.956802 -64.624935 5.287255 -3.345521 -2.505482 -7.031064 1.432313 7.548625 28.328670 10.768015 32.310505 45.235384 21.127961 -23.137286 2.296449 5.879358 -97.620525 5.796851 -6.622285 -23.225586 2.312980 -0.475381 -55.977174 4.544783 -4.490859 -88.724508 5.846666 -5.718134 -88.414074 5.845862 -5.686499 -52.308245 7.615688 -16.465717 -88.433988 5.845911 -5.688531 -88.433990 5.845901 -5.688561 0.481359 4.982347 0.886231 53.071650 -20.191643 22.706109 0.000018 70.760600 0.000029 10.387074 4.291876 -12.584265 26.641855 -2.830246 -1.473137 45.771810 -3.338622 -1.409653 23.643874 -1.870026 -0.391452 -3.640418 15.991109 -10.188190 -9.133392 -31.147252 11.943046 -26.427670 -39.045237 15.211170 30.678098 12.855326 3.962247 52.534827 -3.697159 -1.825100 48.670086 -3.498279 -1.582500 44.112191 -4.910417 -2.864412 65.461562 -4.235450 -2.723052 65.349974 -4.231693 -2.714807 61.149978 -13.303069 -17.315808 78.999615 -4.569049 -3.767049 80.900399 -4.595875 -3.918910 -2.699159 -19.586390 -48.408564 -4.119170 -7.803082 42.025437 5.072073 -18.523658 -1.057798 0.000001 0.000022 -2.209720 -6.680576 12.599532 -36.203898 2.967307 -2.849162 40.601481 -3.187529 7.036691 -20.862987 -0.000001 -0.000002 -6.793640 
-1.572470 94.780400 11.696600 -0.661706 -9.453892 13.703069 -6.441781 -2.321752 10.210372 -2.666272 -1.051014 7.702034 -2.675358 -1.020858 7.702230 0.591861 1.636871 -6.268078 -1.352642 5.643094 -17.356967 0.000000 0.000000 0.000000 0.000000 0.000000 0.000000 0.000000 0.000000 0.000000 -1.022253 -11.738794 1.440157 -19.402222 -9.495108 6.426133 -0.000033 -68.453300 0.000041 11.212516 -17.551698 6.016583 -46.277374 5.902976 -3.464885 -93.762635 5.835580 -6.231198 -64.624929 5.287215 -3.345480 -3.788140 -6.438314 1.835047 7.548625 28.328670 10.768015 32.310505 45.235384 21.127961 -31.349279 2.993787 4.658161 -102.742006 5.705064 -7.135788 -23.644812 2.352293 -0.492449 -60.243897 4.988659 -4.956693 -88.724505 5.846626 -5.718143 -88.414078 5.845871 -5.686530 -54.776183 8.283349 -16.216162 -88.433991 5.845910 -5.688561 -88.433991 5.845931 -5.688541 -1.731237 5.038661 0.878271 48.095671 -23.105485 26.573104 -0.000020 75.161300 0.000056 11.650255 4.084710 -10.490147 29.252475 -2.140798 -1.663952 50.043766 -3.570842 -1.667188 23.643874 -1.870026 -0.391449 -3.640415 15.991109 -10.188190 -9.133392 -31.147252 11.943046 -26.427670 -39.045237 15.211170 34.130619 10.282611 2.513341 54.969055 -3.813808 -1.984577 48.670087 -3.498289 -1.582510 44.112191 -4.910407 -2.864412 66.898377 -4.282431 -2.829757 65.349975 -4.231693 -2.714817 61.149948 -13.302974 -17.315801 77.682265 -4.547513 -3.662345 80.900399 -4.595875 -3.918920 -1.880128 -19.831306 -44.764658 -3.021384 -7.520482 37.266469 5.068670 -18.546640 1.287106 0.000002 -0.000012 -2.300330 -5.456910 13.917266 -30.294210 3.019073 -2.705265 36.561541 -3.951898 7.184214 -21.158799 -0.000001 -0.000001 -7.760540 
